/* XPM */
static char *result[] = {
/* columns rows colors chars-per-pixel */
"26 26 220 2 ",
"   c #593B23",
".  c #533721",
"X  c #2C1D11",
"o  c #1C130B",
"O  c #2B211A",
"+  c #40352E",
"@  c #32251C",
"#  c #442D1B",
"$  c #302013",
"%  c #0C0907",
"&  c #232020",
"*  c #282525",
"=  c #1F1C1C",
"-  c #171616",
";  c #070707",
":  c #0A0704",
">  c #261A0F",
",  c #49311D",
"<  c #2E1E12",
"1  c #190909",
"2  c #271E1E",
"3  c #131212",
"4  c #0F0E0E",
"5  c #070606",
"6  c black",
"7  c #040301",
"8  c #402B19",
"9  c #342215",
"0  c #1C0C0C",
"q  c #332020",
"w  c #0F0D0D",
"e  c #010101",
"r  c #190707",
"t  c #332222",
"y  c #131111",
"u  c #23170E",
"i  c #563922",
"p  c #120C07",
"a  c #2F0D0D",
"s  c #0A0909",
"d  c #040404",
"f  c #060606",
"g  c gray1",
"h  c #020101",
"j  c #22160D",
"k  c gray3",
"l  c DimGray",
"z  c gray40",
"x  c #101010",
"c  c gray48",
"v  c #505050",
"b  c #161616",
"n  c #18110C",
"m  c #191919",
"M  c gray37",
"N  c #323232",
"B  c gray27",
"V  c #6A6A6A",
"C  c gray14",
"Z  c #201A14",
"A  c #484848",
"S  c #727272",
"D  c #222222",
"F  c #201913",
"G  c #060505",
"H  c #1B1B1B",
"J  c #797979",
"K  c gray65",
"L  c gray36",
"P  c #565656",
"I  c #1E1E1E",
"U  c #1F160F",
"Y  c #21150D",
"T  c #220A0A",
"R  c #302C2C",
"E  c #0B0A0A",
"W  c gray5",
"Q  c gray2",
"!  c #0A0705",
"~  c #4F351F",
"^  c #573921",
"/  c #3F3A3A",
"(  c #322E2E",
")  c #090808",
"_  c #21160D",
"`  c #553922",
"'  c #260B0B",
"]  c #312D2D",
"[  c #2B2727",
"{  c #343030",
"}  c #262323",
"|  c #140906",
" . c #310D0D",
".. c #3E3939",
"X. c #322D2D",
"o. c #362E2E",
"O. c #7F7575",
"+. c #8E8383",
"@. c #8A7F7F",
"#. c #3B3232",
"$. c #261E1E",
"%. c #362215",
"&. c #583A22",
"*. c #50351F",
"=. c #1B0F0A",
"-. c #280B0B",
";. c #3A1C1C",
":. c #3E3434",
">. c #270B0B",
",. c #463B3B",
"<. c #9A8D8D",
"1. c #504646",
"2. c #290B0B",
"3. c #201212",
"4. c #180F0E",
"5. c #3E2A19",
"6. c #412C1A",
"7. c #0F0404",
"8. c #371010",
"9. c #3F3838",
"0. c #3A1E1E",
"q. c #1B0909",
"w. c #100505",
"e. c #3A2020",
"r. c #393030",
"t. c #110F0F",
"y. c #19120C",
"u. c #0D0605",
"i. c #330E0E",
"p. c #3B2525",
"a. c #3F3939",
"s. c #3C2929",
"d. c #341111",
"f. c #150E0E",
"g. c #341010",
"h. c #3C2B2B",
"j. c #2E2A2A",
"k. c #171514",
"l. c #381313",
"z. c #3D2E2E",
"x. c #080202",
"c. c #3A1B1B",
"v. c #363232",
"b. c #1C1A1A",
"n. c #211813",
"m. c #513520",
"M. c #0B0704",
"N. c #391B1B",
"B. c #3A2121",
"V. c #1A1818",
"C. c #422C1A",
"Z. c #573923",
"A. c #25180E",
"S. c #200909",
"D. c #371616",
"F. c #393535",
"G. c #1A1919",
"H. c #191412",
"J. c #4A311E",
"K. c #2D1D11",
"L. c #1E0808",
"P. c #361515",
"I. c #3E3131",
"U. c #393434",
"Y. c #1E1C1C",
"T. c #1D1714",
"R. c #4C321E",
"E. c #180D09",
"W. c #1B0707",
"Q. c #332929",
"!. c #272424",
"~. c #1D1B1B",
"^. c #151212",
"/. c #3C2818",
"(. c #24180E",
"). c #141211",
"_. c #161515",
"`. c #2D2A2A",
"'. c #371515",
"]. c #381414",
"[. c #3D2F2F",
"{. c #221F1F",
"}. c #100F0F",
"|. c #3F2A19",
" X c #523721",
".X c #4C331E",
"XX c #4A321D",
"oX c #160F0B",
"OX c #040303",
"+X c #130808",
"@X c #221B1B",
"#X c #383333",
"$X c #372E2E",
"%X c #310F0F",
"&X c #300D0D",
"*X c #0C0303",
"=X c #040101",
"-X c #0D0606",
";X c #511C1C",
":X c #170808",
">X c #110505",
",X c #26160E",
"<X c #553821",
"1X c #513620",
"2X c #491919",
"3X c #2C1010",
"4X c #040202",
"5X c #090403",
"6X c #1C110B",
"7X c #23170D",
"8X c #2B0F0F",
"9X c #4D1A1A",
"0X c #2A0E0E",
"qX c #1F0B0B",
"wX c #432D1A",
"eX c #352315",
"rX c #342214",
"tX c #362415",
"yX c #3A2617",
"uX c #442D1A",
/* pixels */
"                      . X o O + @ #                 ",
"                    $ % & * = - ; : > ,             ",
"                  < 1 2 3 4 5 6 6 6 7 8             ",
"                9 0 q w e 6 6 6 6 6 6 8             ",
"              < r t y 6 6 6 6 6 6 6 6 u i           ",
"              p a s 6 6 6 d d 6 6 f g h j           ",
"              p a 6 6 6 k l z k x c v b n           ",
"              p a 6 6 6 m M M m N B V C Z           ",
"              p a 6 6 6 6 A B 6 S 6 z D F           ",
"              p a G 6 6 6 H J K L K P I U           ",
"              Y T R E 6 6 6 k W d W Q ! ~           ",
"              ^ h / ( ) 6 6 6 6 6 6 6 _ `           ",
"              o ' / / ] s g 5 5 [ { } 8             ",
"            ~ |  ./ / ..X.o.O.+.@.#.$.%.&.          ",
"          *.=.-.;./ / / :.>.,.<.1.2.3.4.5.          ",
"          6.7.8.:./ / / 9.0.q.@.w.e.r.t.y.          ",
"          u.i.p.a./ / / / s.d.f.g.h./ j.k.X         ",
"        9 r l.z./ / / / / a.e.x.c.a./ v.b.n.m.      ",
"        M.a N./ / / / / / / B.x.;./ / / & V.C.      ",
"    Z.A.S.D.:./ / / / / / / B.x.;./ / / F.G.H.J.    ",
"    K.L.P.I./ / / / / / / / B.x.;./ / / / U.Y.T.R.  ",
"    E.W.Q./ / / / / / / / / B.x.;./ / / / !.~.^./.  ",
"    *.(.)._._.`./ / / / / z.'.x.].[.{._._.}.y.|.    ",
"         X.XXXoXOX+X@X#X$X%X&X*X=X-X;X:X>X,X<X      ",
"              1Xh 2X3Xg g 4X5X6X7X8X9X2X0XqXwX      ",
"                6.eXrXrXtX.X    *.yXrXrXrXuX<X      "
};
